<svg xmlns="http://www.w3.org/2000/svg" id="svg2" width="500" height="500" preserveAspectRatio="xMinYMin meet" version="1.1" viewBox="0 0 500 500"><metadata/><g id="background" display="inline"><rect id="out_background_center" width="300" height="300" x="150" y="50" fill="#00f" fill-opacity="1" fill-rule="evenodd" stroke="none" display="inline" opacity=".25"/><path id="out_background_left" fill="#00f" fill-opacity="1" stroke="none" d="m 150,50 0,300 -100,100 0,-300" display="inline" opacity=".25"/><path id="out_background_bottom" fill="#00f" fill-opacity="1" stroke="none" d="m 50,450 100,-100 300,0 -100,100 z" display="inline" opacity=".25"/></g><g id="middleground" display="inline"><path id="middleground_top_left" fill="#000032" fill-opacity="1" stroke="none" stroke-linecap="butt" stroke-linejoin="miter" stroke-opacity="1" stroke-width="1" d="M 50,150 155,195 195,155 150,50 z" opacity=".5"/><path id="middleground_back_top" fill="#000032" fill-opacity="1" stroke="none" stroke-linecap="butt" stroke-linejoin="miter" stroke-opacity="1" stroke-width="1" d="m 151,50 45,105 149,0 105,-105 z" opacity=".5"/><path id="middleground_front_top" fill="#000032" fill-opacity="1" stroke="none" stroke-linecap="butt" stroke-linejoin="miter" stroke-opacity="1" stroke-width="1" d="m 50,150 105,45 150,0 45,-45 z" opacity=".5"/><path id="middleground_front_bottom" fill="#000032" fill-opacity="1" stroke="none" stroke-linecap="butt" stroke-linejoin="miter" stroke-opacity="1" stroke-width="1" d="M 155,345 50,450 350,450 305,345 z" opacity=".5"/><path id="middleground_bottom_right" fill="#000032" fill-opacity="1" stroke="none" stroke-linecap="butt" stroke-linejoin="miter" stroke-opacity="1" stroke-width="1" d="M 305,345 350,450 450,350 345,305 z" opacity=".5"/><path id="middleground_front_right" fill="#aaf" fill-opacity="1" stroke="none" d="m 350,150 -45,45 0,150 45,105 z" display="inline"/></g><g id="foreground" display="inline"><rect id="out_foreground_center" width="300" height="300" x="50" y="150" fill="#000032" fill-opacity="1" fill-rule="evenodd" stroke="none" display="inline" opacity=".5"/><path id="out_foreground_top" fill="#000032" fill-opacity="1" stroke="none" d="M 50,150 150,50 450,50 350,150 z" display="inline" opacity=".5"/><path id="out_foreground_right" fill="#000032" fill-opacity="1" stroke="none" d="m 450,50 0,300 -100,100 0,-300 z" display="inline" opacity=".5"/></g><g id="inner background" display="inline"><rect id="in_background_center" width="150" height="150" x="195" y="155" fill="#fff" stroke="none" display="inline" opacity=".25"/><path id="in_background_left" fill="#fff" stroke="none" d="m 155,195 40,-40 0,150 -40,40 z" display="inline" opacity=".25"/><path id="in_background_bottom" fill="#fff" stroke="none" d="m 155,345 40,-40 150,0 -40,40 z" display="inline" opacity=".13"/></g><g id="inner foreground" display="inline"><rect id="in_foreground_center" width="150" height="150" x="155" y="195" fill="#fff" stroke="none" opacity=".5"/><path id="in_foreground_top" fill="#fff" stroke="none" d="m 155,195 40,-40 150,0 -40,40 z" opacity=".25"/><path id="in_foreground_right" fill="#fff" stroke="none" d="m 305,195 40,-40 0,150 -40,40 z" opacity=".25"/></g></svg>